# xmcd
#
# Track frame offsets:
#	150
#	20027
#	39594
#	60671
#	72844
#	90229
#	108127
#	133193
#	147545
#	157702
#	185162
#
# Disc length: 2710 seconds
# Revision: 0
# Processed by: cddbd v1.5.2PL0 Copyright (c) Steve Scherf et al.
# Submitted via: dBpowerAMP V12.0
#
DISCID=940a940b
DTITLE=מיכל גבע - מיכל גבע
DYEAR=2010
DGENRE=Rock
TTITLE0=אור גדול
TTITLE1=קפה
TTITLE2=שנתיים במים
TTITLE3=220
TTITLE4=זעם
TTITLE5=פה השמש
TTITLE6=הלוואי עליי
TTITLE7=רומנטי
TTITLE8=קרח
TTITLE9=בוא עכשיו
TTITLE10=חלום ישן
EXTD=
EXTT0=
EXTT1=
EXTT2=
EXTT3=
EXTT4=
EXTT5=
EXTT6=
EXTT7=
EXTT8=
EXTT9=
EXTT10=
PLAYORDER=
